<svg xmlns="http://www.w3.org/2000/svg" viewBox="0 0 564 564">
  <path d="M2239 4317c-317-556-947-1662-1399-2457C388 1066 15 410 13 403c-8-20 608-18 761 2 295 39 584 152 826 323 126 89 315 273 409 399 44 59 159 247 276 453 223 393 246 422 365 479 70 34 82 36 170 36s100-2 170-36c45-21 93-54 120-82 34-34 159-245 485-816l439-771h798c439 0 798 2 798 4 0 2-60 109-133 237-74 129-185 324-247 434-62 110-564 992-1115 1960S3064 4908 2979 5057c-85 150-156 273-159 273-3 0-264-456-581-1013z" transform="matrix(.1 0 0 -.1 0 564)"/>
  <path d="M2763 1520c-111-23-135-53-360-449-108-190-202-361-209-381-38-104 16-228 120-276l51-24h629c528 0 627 2 623 14-22 56-577 1009-605 1039-64 66-158 95-249 77z" transform="matrix(.1 0 0 -.1 0 564)"/>
</svg>
